<svg xmlns="http://www.w3.org/2000/svg" xmlns:xlink="http://www.w3.org/1999/xlink" width="50" zoomAndPan="magnify" viewBox="0 0 37.5 37.499999" height="50" preserveAspectRatio="xMidYMid meet" version="1.0"><defs><g/><clipPath id="870a856d7f"><path d="M 0 0 L 37.007812 0 L 37.007812 37.007812 L 0 37.007812 Z M 0 0 " clip-rule="nonzero"/></clipPath></defs><g clip-path="url(#870a856d7f)"><path fill="#ffffff" d="M 0 0 L 37.5 0 L 37.5 37.5 L 0 37.5 Z M 0 0 " fill-opacity="1" fill-rule="nonzero"/><path fill="#ffffff" d="M 0 0 L 37.5 0 L 37.5 37.5 L 0 37.5 Z M 0 0 " fill-opacity="1" fill-rule="nonzero"/></g><g fill="#000000" fill-opacity="1"><g transform="translate(2.741444, 30.390521)"><g><path d="M 19.3125 -8.75 C 18.105469 -5.359375 16.421875 -3.3125 14.714844 -3.3125 C 14.058594 -3.3125 13.636719 -3.652344 13.636719 -4.414062 C 13.636719 -4.78125 13.714844 -5.203125 13.898438 -5.726562 L 18.707031 -19.863281 C 18.8125 -20.207031 18.867188 -20.496094 18.867188 -20.785156 C 18.867188 -22.019531 17.917969 -22.808594 16.894531 -22.808594 C 16.027344 -22.808594 15.109375 -22.253906 14.636719 -20.914062 C 13.847656 -18.65625 12.847656 -15.503906 12.085938 -13.242188 L 7.539062 -13.242188 L 9.800781 -19.835938 C 9.933594 -20.230469 9.984375 -20.574219 9.984375 -20.914062 C 9.984375 -22.125 9.117188 -22.808594 8.171875 -22.808594 C 7.253906 -22.808594 6.226562 -22.175781 5.832031 -20.808594 L 3.179688 -13.242188 L 2.023438 -13.242188 C 0.421875 -13.242188 -0.238281 -12.402344 -0.238281 -11.5625 C -0.238281 -10.746094 0.394531 -9.933594 1.394531 -9.933594 L 2.023438 -9.933594 L -0.472656 -2.652344 C -0.578125 -2.363281 -0.628906 -2.074219 -0.628906 -1.839844 C -0.628906 -0.710938 0.367188 0 1.417969 0 C 2.285156 0 3.207031 -0.5 3.574219 -1.679688 C 4.386719 -4.097656 5.570312 -7.515625 6.386719 -9.933594 C 8.039062 -9.933594 9.40625 -9.957031 10.984375 -9.957031 C 10.484375 -8.511719 10.195312 -7.75 9.722656 -6.386719 C 9.511719 -5.726562 9.40625 -5.070312 9.40625 -4.464844 C 9.40625 -1.679688 11.667969 0 14.398438 0 C 18.339844 0 20.941406 -3.335938 22.492188 -7.988281 C 22.542969 -8.144531 22.597656 -8.460938 22.597656 -8.59375 C 22.597656 -9.40625 21.808594 -9.851562 20.992188 -9.851562 C 20.257812 -9.851562 19.523438 -9.511719 19.3125 -8.75 Z M 19.3125 -8.75 "/></g></g></g><g fill="#000000" fill-opacity="1"><g transform="translate(20.002078, 30.390521)"><g><path d="M 15.449219 -21.992188 L 8.671875 -21.992188 C 7.382812 -21.964844 6.648438 -20.941406 6.648438 -19.96875 C 6.648438 -19.101562 7.226562 -18.289062 8.566406 -18.289062 L 11.324219 -18.289062 L 7.171875 -6.097656 C 6.464844 -4.046875 5.414062 -3.390625 4.179688 -3.390625 C 3.679688 -3.390625 3.3125 -3.941406 3.3125 -4.179688 C 3.335938 -4.28125 3.335938 -4.414062 3.335938 -4.519531 C 3.335938 -5.542969 2.363281 -6.175781 1.394531 -6.175781 C 0.421875 -6.175781 -0.578125 -5.542969 -0.578125 -4.019531 C -0.578125 -1.601562 1.679688 0.316406 4.570312 0.316406 C 6.777344 0.316406 9.722656 -0.917969 11.113281 -4.941406 L 16.710938 -21.230469 C 16.84375 -21.597656 16.605469 -21.992188 16.1875 -21.992188 Z M 15.449219 -21.992188 "/></g></g></g></svg>